<svg width="25" height="24" viewBox="0 0 25 24" fill="none" xmlns="http://www.w3.org/2000/svg">
<path d="M12.8708 14.7442C14.3766 14.7442 15.5973 13.516 15.5973 12.001C15.5973 10.486 14.3766 9.25781 12.8708 9.25781C11.365 9.25781 10.1443 10.486 10.1443 12.001C10.1443 13.516 11.365 14.7442 12.8708 14.7442Z" fill="#FAE31B"/>
<path d="M24.7989 10.8263H22.7601C22.2257 6.23866 18.5982 2.58891 14.0386 2.05123V0H11.7054V2.05123C7.14573 2.58891 3.51821 6.23866 2.98381 10.8263H0.945068V13.1737H2.98381C3.51821 17.7613 7.14573 21.4111 11.7054 21.9488V24H14.0386V21.9488C18.5982 21.4111 22.2257 17.7613 22.7601 13.1737H24.7989V10.8263ZM14.0375 19.5812V17.6887H11.7043V19.5812C8.43231 19.0737 5.84027 16.4658 5.33586 13.1737H7.21684V10.8263H5.33586C5.84027 7.53423 8.43231 4.92632 11.7043 4.41882V6.31244H14.0375V4.41882C17.3094 4.92632 19.9015 7.53423 20.4059 10.8263H18.5249V13.1737H20.4059C19.9015 16.4658 17.3094 19.0737 14.0375 19.5812Z" fill="white"/>
</svg>
